<mxfile host="app.diagrams.net" modified="2022-01-06T07:02:51.165Z" agent="5.0 (Windows NT 10.0; Win64; x64) AppleWebKit/537.36 (KHTML, like Gecko) Chrome/96.0.4664.110 Safari/537.36" etag="aDnO6mwZb0HrttOz2h1a" version="16.2.2" type="github">
  <diagram id="zdEymZCHrjLcuN3iB8jA" name="Page-1">
    <mxGraphModel dx="1038" dy="579" grid="1" gridSize="10" guides="1" tooltips="1" connect="1" arrows="1" fold="1" page="1" pageScale="1" pageWidth="827" pageHeight="1169" math="0" shadow="0">
      <root>
        <mxCell id="0" />
        <mxCell id="1" parent="0" />
        <mxCell id="39hTGtykct5_lLaXmXcA-18" value="" style="rounded=0;whiteSpace=wrap;html=1;dashed=1;" vertex="1" parent="1">
          <mxGeometry x="280" y="480" width="118" height="200" as="geometry" />
        </mxCell>
        <mxCell id="L4HHY8r-7hbT46ejeRS8-2" value="业务" style="rounded=0;whiteSpace=wrap;html=1;verticalAlign=top;dashed=1;align=left;spacingLeft=5;" parent="1" vertex="1">
          <mxGeometry x="80" y="40" width="360" height="360" as="geometry" />
        </mxCell>
        <mxCell id="L4HHY8r-7hbT46ejeRS8-5" value="机器人" style="rounded=0;whiteSpace=wrap;html=1;dashed=1;verticalAlign=top;" parent="1" vertex="1">
          <mxGeometry x="120" y="280" width="280" height="90" as="geometry" />
        </mxCell>
        <mxCell id="L4HHY8r-7hbT46ejeRS8-6" value="爬取数据" style="rounded=0;whiteSpace=wrap;html=1;" parent="1" vertex="1">
          <mxGeometry x="170" y="320" width="80" height="30" as="geometry" />
        </mxCell>
        <mxCell id="L4HHY8r-7hbT46ejeRS8-8" value="上报数据" style="rounded=0;whiteSpace=wrap;html=1;" parent="1" vertex="1">
          <mxGeometry x="295" y="320" width="80" height="30" as="geometry" />
        </mxCell>
        <mxCell id="L4HHY8r-7hbT46ejeRS8-9" value="发票" style="rounded=0;whiteSpace=wrap;html=1;dashed=1;verticalAlign=top;" parent="1" vertex="1">
          <mxGeometry x="122" y="80" width="120" height="170" as="geometry" />
        </mxCell>
        <mxCell id="L4HHY8r-7hbT46ejeRS8-10" value="归集" style="rounded=0;whiteSpace=wrap;html=1;" parent="1" vertex="1">
          <mxGeometry x="147" y="120" width="70" height="30" as="geometry" />
        </mxCell>
        <mxCell id="L4HHY8r-7hbT46ejeRS8-11" value="查验" style="rounded=0;whiteSpace=wrap;html=1;" parent="1" vertex="1">
          <mxGeometry x="147" y="160" width="70" height="30" as="geometry" />
        </mxCell>
        <mxCell id="L4HHY8r-7hbT46ejeRS8-12" value="认证" style="rounded=0;whiteSpace=wrap;html=1;" parent="1" vertex="1">
          <mxGeometry x="147" y="200" width="70" height="30" as="geometry" />
        </mxCell>
        <mxCell id="L4HHY8r-7hbT46ejeRS8-13" value="申报" style="rounded=0;whiteSpace=wrap;html=1;dashed=1;verticalAlign=top;" parent="1" vertex="1">
          <mxGeometry x="280" y="80" width="120" height="170" as="geometry" />
        </mxCell>
        <mxCell id="L4HHY8r-7hbT46ejeRS8-14" value="清册" style="rounded=0;whiteSpace=wrap;html=1;" parent="1" vertex="1">
          <mxGeometry x="305" y="120" width="70" height="30" as="geometry" />
        </mxCell>
        <mxCell id="L4HHY8r-7hbT46ejeRS8-15" value="报税" style="rounded=0;whiteSpace=wrap;html=1;" parent="1" vertex="1">
          <mxGeometry x="305" y="160" width="70" height="30" as="geometry" />
        </mxCell>
        <mxCell id="L4HHY8r-7hbT46ejeRS8-16" value="缴款" style="rounded=0;whiteSpace=wrap;html=1;" parent="1" vertex="1">
          <mxGeometry x="305" y="200" width="70" height="30" as="geometry" />
        </mxCell>
        <mxCell id="39hTGtykct5_lLaXmXcA-1" value="运营" style="rounded=0;whiteSpace=wrap;html=1;verticalAlign=top;dashed=1;align=left;spacingLeft=5;" vertex="1" parent="1">
          <mxGeometry x="480" y="40" width="200" height="360" as="geometry" />
        </mxCell>
        <mxCell id="39hTGtykct5_lLaXmXcA-2" value="调度任务监控" style="rounded=0;whiteSpace=wrap;html=1;verticalAlign=middle;" vertex="1" parent="1">
          <mxGeometry x="520" y="289" width="120" height="50" as="geometry" />
        </mxCell>
        <mxCell id="39hTGtykct5_lLaXmXcA-5" value="发票查验统计" style="rounded=0;whiteSpace=wrap;html=1;verticalAlign=middle;" vertex="1" parent="1">
          <mxGeometry x="520" y="101" width="120" height="50" as="geometry" />
        </mxCell>
        <mxCell id="39hTGtykct5_lLaXmXcA-9" value="申报统计" style="rounded=0;whiteSpace=wrap;html=1;verticalAlign=middle;" vertex="1" parent="1">
          <mxGeometry x="520" y="195" width="120" height="50" as="geometry" />
        </mxCell>
        <mxCell id="39hTGtykct5_lLaXmXcA-14" value="RDS" style="shape=cylinder3;whiteSpace=wrap;html=1;boundedLbl=1;backgroundOutline=1;size=15;" vertex="1" parent="1">
          <mxGeometry x="80" y="520" width="60" height="80" as="geometry" />
        </mxCell>
        <mxCell id="39hTGtykct5_lLaXmXcA-24" value="" style="html=1;shadow=0;dashed=0;align=center;verticalAlign=middle;shape=mxgraph.arrows2.arrow;dy=0.6;dx=20;notch=0;" vertex="1" parent="1">
          <mxGeometry x="178" y="547.5" width="70" height="27.5" as="geometry" />
        </mxCell>
        <mxCell id="39hTGtykct5_lLaXmXcA-27" value="" style="rounded=0;whiteSpace=wrap;html=1;dashed=1;" vertex="1" parent="1">
          <mxGeometry x="519" y="480" width="160" height="200" as="geometry" />
        </mxCell>
        <mxCell id="39hTGtykct5_lLaXmXcA-30" value="数据仓库" style="rounded=0;whiteSpace=wrap;html=1;" vertex="1" parent="1">
          <mxGeometry x="554" y="520" width="90" height="40" as="geometry" />
        </mxCell>
        <mxCell id="39hTGtykct5_lLaXmXcA-31" value="数据湖" style="rounded=0;whiteSpace=wrap;html=1;" vertex="1" parent="1">
          <mxGeometry x="554" y="600" width="90" height="40" as="geometry" />
        </mxCell>
        <mxCell id="39hTGtykct5_lLaXmXcA-36" value="RDS1" style="shape=cylinder3;whiteSpace=wrap;html=1;boundedLbl=1;backgroundOutline=1;size=15;aspect=fixed;" vertex="1" parent="1">
          <mxGeometry x="309" y="495" width="60" height="80" as="geometry" />
        </mxCell>
        <mxCell id="39hTGtykct5_lLaXmXcA-37" value="RDS2" style="shape=cylinder3;whiteSpace=wrap;html=1;boundedLbl=1;backgroundOutline=1;size=15;aspect=fixed;" vertex="1" parent="1">
          <mxGeometry x="309" y="585" width="60" height="80" as="geometry" />
        </mxCell>
        <mxCell id="39hTGtykct5_lLaXmXcA-39" value="" style="html=1;shadow=0;dashed=0;align=center;verticalAlign=middle;shape=mxgraph.arrows2.arrow;dy=0.6;dx=20;notch=0;" vertex="1" parent="1">
          <mxGeometry x="428" y="547.5" width="70" height="27.5" as="geometry" />
        </mxCell>
        <mxCell id="39hTGtykct5_lLaXmXcA-40" value="TP和AP数据分离" style="rounded=0;whiteSpace=wrap;html=1;" vertex="1" parent="1">
          <mxGeometry x="80" y="760" width="120" height="60" as="geometry" />
        </mxCell>
        <mxCell id="39hTGtykct5_lLaXmXcA-41" value="微服务+分库分表" style="rounded=0;whiteSpace=wrap;html=1;" vertex="1" parent="1">
          <mxGeometry x="280" y="760" width="120" height="60" as="geometry" />
        </mxCell>
        <mxCell id="39hTGtykct5_lLaXmXcA-42" value="基于大数据平台的AP" style="rounded=0;whiteSpace=wrap;html=1;" vertex="1" parent="1">
          <mxGeometry x="484" y="760" width="160" height="60" as="geometry" />
        </mxCell>
        <mxCell id="39hTGtykct5_lLaXmXcA-43" value="" style="html=1;shadow=0;dashed=0;align=center;verticalAlign=middle;shape=mxgraph.arrows2.arrow;dy=0.67;dx=15;notch=0;" vertex="1" parent="1">
          <mxGeometry x="210" y="790" width="50" height="20" as="geometry" />
        </mxCell>
        <mxCell id="39hTGtykct5_lLaXmXcA-44" value="" style="html=1;shadow=0;dashed=0;align=center;verticalAlign=middle;shape=mxgraph.arrows2.arrow;dy=0.67;dx=15;notch=0;" vertex="1" parent="1">
          <mxGeometry x="413.5" y="790" width="50" height="20" as="geometry" />
        </mxCell>
      </root>
    </mxGraphModel>
  </diagram>
</mxfile>
